<svg width="1413" height="1335" viewBox="0 0 1413 1335" fill="none" xmlns="http://www.w3.org/2000/svg">
<path fill-rule="evenodd" clip-rule="evenodd" d="M642.5 4.832C624.856 14.228 565.478 47.32 564.239 48.447C563.289 49.31 579.272 49.61 628.989 49.661L695 49.728V0L651.5 0.038002L642.5 4.832ZM491.739 88.398C476.47 96.808 463.682 103.984 463.322 104.345C462.962 104.705 514.942 105 578.833 105H695V73L519.5 73.106L491.739 88.398ZM397 141.118C383.525 148.291 370.25 155.464 367.5 157.058L362.5 159.956L695 160V128L421.5 128.075L397 141.118ZM294.5 198.115C280.75 205.77 268.375 212.683 267 213.477C264.816 214.738 291.675 214.925 479.75 214.96L695 215V184L319.5 184.197L294.5 198.115ZM242 270H695V239H242V270ZM242 325H695V294H242V325ZM242 380H695V348H242V380ZM242 439H695V404H242V439ZM718 541.5L920.25 541.465C1031.49 541.445 1131.79 541.333 1143.14 541.215L1163.79 541L1164.91 534.75C1168.04 517.341 1170.19 495.293 1170.34 479L1170.5 461.5L718 460.925V541.5ZM718 562H1158.91L1159.95 558.25C1160.52 556.188 1160.99 553.712 1160.99 552.75C1161 551.089 1149.79 551 939.5 551H718V562ZM936.75 571.752L718 572.004V583H764.767L765.37 585.25C765.701 586.487 765.981 591.325 765.992 596C766.002 600.675 766.301 608.888 766.656 614.25L767.302 624H800V613H775L774.991 603.25C774.987 597.888 774.699 591.138 774.352 588.25L773.721 583H824.784L825.369 592.75C825.69 598.112 826.232 607.337 826.573 613.25L827.192 624H860V613H835.105L834.803 598.984C834.636 591.275 834.65 584.525 834.833 583.984C835.04 583.374 844.6 583 859.975 583H884.783L885.466 601.75C885.842 612.063 886.371 621.288 886.642 622.25C887.085 623.823 888.75 624 903.117 624H919.1L918.5 612.5L914.5 612.372C912.3 612.302 906.787 612.189 902.25 612.122L894 612V583H944.69L945.345 596.658C945.705 604.17 946 613.395 946 617.158V624H978V613H954V583H1003.71L1005.5 623.5L1037 624.051V613.063L1013.5 612.5L1012.95 583H1062.7L1063.35 591.25C1063.7 595.788 1063.99 604.301 1063.99 610.168C1064 616.036 1064.27 621.548 1064.61 622.418C1065.13 623.769 1067.54 624 1081.11 624H1097V613H1073.28L1072.65 607.75C1072.3 604.862 1072.01 598.112 1072.01 592.75L1072 583H1121.78L1122.38 592.75C1122.71 598.112 1123.26 607.337 1123.61 613.25L1124.24 624H1138.11L1142.76 613.5L1132.26 612.908L1131.63 608.314C1131.28 605.788 1131 599.073 1131 593.393V583.066L1153.29 582.5L1154.7 577.665C1155.48 575.006 1155.97 572.531 1155.81 572.165C1155.64 571.799 1057.06 571.614 936.75 571.752ZM725.402 593.395C725.108 594.162 725.009 596.524 725.183 598.645L725.5 602.5L749 603.063V634H718V645H1129.04L1133.65 634.5L1115.5 633.5L1113.5 592.5L1081 591.95V603H1106V634H1056.23L1055.56 615.75C1055.2 605.712 1054.66 596.263 1054.37 594.75L1053.84 592H1022V603H1045.9L1046.2 618.086C1046.36 626.384 1046.31 633.359 1046.08 633.586C1045.85 633.814 1034.75 634 1021.41 634H997.159L996.609 627.75C996.307 624.313 995.709 614.975 995.28 607L994.5 592.5H963.5V602.5L987 603.063V634H938.187L937.62 624.75C937.309 619.663 936.704 610.325 936.277 604L935.5 592.5L903 591.95V603H928V634H878.229L877.574 616.75C877.213 607.263 876.672 597.813 876.371 595.75L875.824 592H842.895L843.5 602.5L867.728 603.059L868.356 608.28C868.7 611.151 868.987 618.112 868.991 623.75L869 634H819.262L818.642 630.25C818.301 628.188 818.015 623.125 818.006 619C817.997 614.875 817.699 607.112 817.344 601.75L816.698 592H784V603H809V634H759.275L758.667 625.75C758.333 621.212 757.76 611.763 757.394 604.75L756.729 592H741.333C729.086 592 725.828 592.285 725.402 593.395ZM1140.4 593.395C1140.11 594.162 1140.01 596.524 1140.18 598.645C1140.46 602.022 1140.84 602.54 1143.27 602.819C1145.6 603.086 1146.26 602.606 1147.4 599.819C1150.61 591.972 1150.62 592 1145.54 592C1142.53 592 1140.75 592.482 1140.4 593.395ZM718 624H740V613H718V624ZM718 665L743.75 665.003C757.912 665.005 847.981 665.015 943.902 665.025L1118.3 665.044L1121.15 660.057C1122.72 657.315 1124 654.83 1124 654.535C1124 654.241 1032.65 654 921 654H718V665ZM735.772 675.703L718.045 676.046L717.772 716.273C717.623 738.398 717.619 784.063 717.765 817.75L718.03 879H737.282C792.593 879 842.065 871.5 886.899 856.319C969.331 828.405 1037.15 779.033 1090.47 708.113C1096.97 699.464 1112 676.903 1112 675.788C1112 675.351 758.079 675.271 735.772 675.703ZM312.61 955.25C311.821 956.487 305.45 970.325 298.453 986C291.456 1001.68 281.8 1023.27 276.996 1034C272.192 1044.73 263.427 1064.3 257.518 1077.5C251.608 1090.7 240.686 1115 233.246 1131.5C225.806 1148 217.541 1166.58 214.881 1172.79C201.397 1204.25 194.137 1214.48 181.997 1219.12C175.735 1221.51 175.5 1221.72 175.5 1225.05V1228.5L186 1228C204.089 1227.14 224.013 1227.49 237.234 1228.91C250.651 1230.34 253.02 1229.93 252.985 1226.13C252.956 1223.07 251.359 1221.97 243.933 1219.93C224.457 1214.58 220.629 1204.17 229.795 1181.5C234.711 1169.34 246.006 1143.91 250.052 1135.9C255.069 1125.96 251.844 1126.54 303.455 1126.19C350.271 1125.87 354.965 1126.2 356.983 1129.97C357.541 1131.01 360.744 1139.21 364.1 1148.18C367.456 1157.16 372.237 1169.9 374.723 1176.5C386.648 1208.15 385.937 1214.68 370.044 1219.39C363.595 1221.31 362 1222.54 362 1225.59C362 1229.51 364.406 1229.85 381.5 1228.3C397.05 1226.88 415.886 1226.99 444.318 1228.64L455.137 1229.27L454.5 1221.72L444.769 1218.51C432.413 1214.43 428.074 1211.39 422.337 1202.75C415.463 1192.41 409.425 1177.86 366.219 1067.5C361.266 1054.85 349.462 1024.7 339.987 1000.5C330.511 976.3 322.347 955.713 321.844 954.75C320.448 952.078 314.426 952.405 312.61 955.25ZM612.006 961.25C609.86 965.787 597.558 993.125 584.669 1022C571.78 1050.88 554.917 1088.45 547.195 1105.5C539.473 1122.55 527.265 1149.53 520.066 1165.46C500.008 1209.84 497.386 1213.5 480.75 1220.35C477.411 1221.73 477 1222.29 477 1225.45C477 1229.68 475.916 1229.55 497.294 1227.81C510.171 1226.75 514.725 1226.83 532.455 1228.41C543.657 1229.41 553.312 1229.93 553.911 1229.56C555.145 1228.79 555.342 1225.06 554.235 1223.41C553.831 1222.8 550.125 1221.31 546 1220.08C541.875 1218.86 536.867 1216.79 534.871 1215.49C527.465 1210.67 524.967 1199.2 528.867 1187.91C530.979 1181.79 546.402 1146.83 551.287 1137.09C556.957 1125.78 553.163 1126.55 605.322 1126.19C634.789 1125.99 651.743 1126.24 654.073 1126.93C658.317 1128.17 658.303 1128.14 670.384 1159.11C684.737 1195.89 687.04 1205.16 683.524 1211.95C681.742 1215.4 677.075 1218.4 671 1220.01C668.525 1220.66 665.938 1221.66 665.25 1222.22C663.251 1223.86 663.734 1227.97 666.025 1228.81C667.139 1229.23 675.352 1228.96 684.275 1228.22C699.985 1226.92 722.453 1227.07 746.819 1228.64L757.139 1229.3L756.5 1221.51L748.5 1218.92C731.702 1213.47 727.136 1209.22 718.087 1190.58C711.182 1176.37 686.445 1114.28 632.788 976.5C623.445 952.509 623.724 953 619.428 953C616.001 953 615.805 953.218 612.006 961.25ZM1270.58 955.25C1269.77 956.487 1256.78 985.175 1241.7 1019C1217.38 1073.56 1193.49 1126.84 1170.38 1178.12C1161.42 1197.99 1156.92 1205.88 1151.32 1211.51C1147.3 1215.55 1144.92 1216.99 1136.75 1220.35C1133.37 1221.75 1133 1222.26 1133 1225.6V1229.29L1140.75 1228.62C1161.96 1226.79 1170.16 1226.77 1188.77 1228.5C1209.02 1230.39 1211 1230.17 1211 1226C1211 1223.43 1209.31 1222.39 1200.69 1219.65C1187.7 1215.53 1182.99 1210.26 1183.01 1199.85C1183.01 1192.56 1184.06 1189.23 1192.73 1169.01C1203.89 1142.99 1210.5 1129.7 1213.16 1128C1215.13 1126.74 1222.64 1126.45 1261 1126.19C1291.22 1125.98 1307.72 1126.24 1310.14 1126.95C1314.37 1128.19 1313.81 1127.01 1327.84 1164C1337.63 1189.8 1341.52 1203.36 1340.49 1208.06C1339.35 1213.23 1335.52 1216.67 1328.22 1219.06C1319.96 1221.77 1318.82 1222.64 1319.2 1225.91L1319.5 1228.5L1334.5 1228C1357.15 1227.25 1382.91 1227.4 1398.09 1228.38C1410.26 1229.16 1411.75 1229.08 1412.32 1227.62C1413.84 1223.64 1411.43 1221.37 1402.83 1218.68C1392.65 1215.5 1386.1 1211.47 1381.91 1205.8C1376.34 1198.27 1367.69 1178.69 1350.2 1134C1284.54 966.285 1281.31 958.123 1279.45 955.281C1277.43 952.2 1272.58 952.184 1270.58 955.25ZM159.5 959.05C140.108 960.571 48.817 961.291 26.251 960.101C1.63598 958.804 0 959.047 0 964C0 967.538 1.621 968.526 9 969.483C19.359 970.828 26.181 975.399 29.429 983.174C32.764 991.159 33.124 1003.95 32.789 1102.5C32.481 1193.36 32.344 1199.85 30.628 1205C28.199 1212.29 22.422 1217.83 14.461 1220.5C9.423 1222.19 8.45297 1222.9 8.19897 1225.09C7.62497 1230.02 9.44499 1230.41 26.292 1228.99C37.126 1228.07 47.759 1227.92 63.021 1228.48C74.834 1228.92 88.325 1229.32 93 1229.39L101.5 1229.5L101.808 1225.78C102.088 1222.42 101.853 1222.01 99.308 1221.48C81.75 1217.79 75.949 1215.29 71.879 1209.67C65.763 1201.23 65.616 1199.92 65.235 1150.23L64.888 1104.96L71.012 1098.83L103.756 1099.26C124.973 1099.53 137.779 1100.09 140.134 1100.85C148.345 1103.51 152.165 1109.14 154.244 1121.65C155.493 1129.17 155.666 1129.51 158.396 1129.83C159.962 1130.01 161.751 1129.65 162.372 1129.03C164.145 1127.26 164.05 1056.29 162.273 1054.81C159.574 1052.57 156.344 1055.39 154.982 1061.18C152.519 1071.64 148.236 1077.02 140 1079.99C135.822 1081.49 76.578 1083.14 71.093 1081.91C69.146 1081.47 66.979 1080.32 66.277 1079.36C64.504 1076.94 64.531 987.193 66.306 982.026C68.411 975.901 68.718 975.859 107.5 976.364C164.467 977.105 166.443 978.015 169.713 1005C170.486 1011.38 170.558 1011.51 173.684 1011.81C178.031 1012.23 178.578 1010.84 179.916 996C180.536 989.125 182.011 978.514 183.194 972.421C184.377 966.328 185.057 960.59 184.704 959.671C183.997 957.828 177.224 957.661 159.5 959.05ZM1040.06 961.658C1038.05 964.205 1024.89 991.804 992.695 1061C968.223 1113.59 950.122 1151.84 942.957 1166.09L938.763 1174.43L936.723 1171.96C933.426 1167.98 914.985 1128.88 868.827 1028C848.912 984.476 840.394 967.185 836.71 962.806L834.5 960.179L806.107 960.84C780.529 961.435 777.604 961.674 776.607 963.259C775.767 964.593 775.863 965.664 777.006 967.701C778.255 969.926 779.639 970.593 785.112 971.603C803.731 975.039 812.656 984.763 818.054 1007.49C822.413 1025.84 822.327 1045.82 817.504 1135.31C814.831 1184.92 814.203 1191.32 810.939 1202.29C808.255 1211.31 803.798 1215.69 793.272 1219.65C785.635 1222.52 785.5 1222.63 785.5 1226.04V1229.5L796 1229.35C809.851 1229.16 849.014 1229.16 861 1229.35L870.5 1229.5L870.801 1226.42C871.183 1222.5 870.07 1221.68 861.64 1219.61C847.329 1216.09 841.515 1211.27 837.751 1199.78C833.932 1188.13 834.208 1144.18 838.548 1073C839.336 1060.07 839.985 1048.49 839.99 1047.25C839.996 1046.01 840.36 1045 840.801 1045C841.815 1045 843.335 1048.13 859.499 1083.5C873.96 1115.15 908.812 1189.34 919.506 1211.25C926.017 1224.59 926.311 1225 929.359 1224.98C931.086 1224.98 933.074 1224.61 933.776 1224.16C935.041 1223.36 940.75 1211.69 962.471 1165.5C994.147 1098.14 1025.14 1034.65 1026.86 1033.58C1028.55 1032.54 1029.58 1049.78 1031.54 1111.66C1033.55 1175.09 1033.65 1200.26 1031.91 1205.98C1030.05 1212.1 1024.66 1217.19 1016.89 1220.16C1010.74 1222.51 1010.5 1222.73 1010.5 1226.05C1010.5 1230.54 1010.78 1230.57 1034.49 1228.94C1050.78 1227.82 1056.54 1227.86 1074.99 1229.17C1087.05 1230.02 1097.49 1230.33 1098.75 1229.87C1100.4 1229.27 1101 1228.25 1101 1226.06C1101 1222.48 1099.73 1221.71 1091 1220.05C1082.26 1218.38 1074.55 1214.59 1071.33 1210.37C1065.91 1203.25 1065.22 1195.71 1062.47 1113C1059 1008.96 1059.26 992.294 1064.51 981.5C1067.51 975.348 1071.28 972.729 1081 970.061C1085.12 968.928 1089.07 967.238 1089.76 966.303C1090.84 964.842 1090.62 961.456 1089.36 960.063C1089.14 959.823 1078.34 959.598 1065.36 959.563C1042.33 959.502 1041.71 959.553 1040.06 961.658ZM315.071 1022.01C320.305 1034.58 344.053 1096.84 345.453 1101.67C345.908 1103.23 345.457 1104.27 343.818 1105.42C341.853 1106.79 336.765 1107 305.212 1107C282.072 1107 268.166 1106.62 266.934 1105.96C263.05 1103.89 262.06 1106.48 295.911 1030.13C300.39 1020.03 304.523 1010.89 305.095 1009.82C307.269 1005.76 309.376 1008.33 315.071 1022.01ZM611.782 1009.25C614.049 1012.01 648 1100.26 648 1103.4C648 1104.31 646.846 1105.49 645.435 1106.03C643.942 1106.59 627.902 1107 607.046 1107C574.413 1107 571.03 1106.84 569.073 1105.25L566.925 1103.5L568.846 1098C572.014 1088.93 606.333 1011.61 608.235 1009.25C608.791 1008.56 609.585 1008 610 1008C610.415 1008 611.217 1008.56 611.782 1009.25ZM1270.83 1016.51C1275.56 1027.65 1302.53 1097.91 1303.34 1101.19C1303.86 1103.29 1303.52 1104.22 1301.78 1105.44C1299.86 1106.78 1294.48 1107 1262.89 1107C1229.43 1107 1226.04 1106.85 1224.12 1105.25L1222.03 1103.5L1226.36 1093C1230.4 1083.22 1257.63 1021.81 1262.19 1012.2C1265.06 1006.14 1266.79 1007 1270.83 1016.51ZM203.049 1260.9C196.16 1263.83 194.171 1266 198.381 1266C199.877 1266 201.357 1266.8 201.965 1267.93C202.609 1269.14 203 1280.68 203 1298.5C203 1327.14 202.58 1331 199.465 1331C198.659 1331 198 1331.58 198 1332.28C198 1334.06 218.165 1334.01 218.759 1332.22C218.983 1331.55 218.329 1331 217.306 1331C216.282 1331 214.445 1330.3 213.223 1329.44L211 1327.89V1293.5C211 1274.59 210.657 1258.91 210.238 1258.65C209.819 1258.39 206.584 1259.4 203.049 1260.9ZM256.615 1260.5C253.929 1261.78 250.891 1263.06 249.865 1263.32C247.154 1264.03 247.579 1266 250.443 1266C254.865 1266 256 1269.23 256 1281.83C256 1292.05 255.83 1293.15 254.33 1292.57C250.13 1290.96 244.02 1290.12 240.564 1290.68C235.03 1291.58 228.008 1296.75 225.307 1301.91C222.187 1307.87 222.084 1318.48 225.086 1324.68C230.024 1334.88 243.202 1337.75 251.816 1330.5C255.025 1327.8 256 1328.1 256 1331.79C256 1334.03 256.288 1334.19 259.25 1333.6C261.038 1333.24 264.188 1332.68 266.25 1332.35C270.862 1331.61 271.066 1330.33 266.75 1329.21L263.5 1328.37L263.237 1293.19C263.093 1273.83 262.643 1258.03 262.237 1258.08C261.832 1258.12 259.302 1259.21 256.615 1260.5ZM351.027 1261.08C344.439 1263.89 342.214 1266 345.845 1266C350.202 1266 351 1268.35 351 1281.18C351 1292.25 350.86 1293.16 349.25 1292.49C345.218 1290.83 340.277 1290.09 337 1290.66C328.754 1292.1 321.047 1298.57 319.06 1305.72C313.337 1326.33 331.123 1342.39 346.963 1330.91L351 1327.99V1330.99C351 1334.43 350.746 1334.37 358.583 1332.86C365.998 1331.43 367.301 1330.34 362.63 1329.46L359 1328.78V1293.95C359 1274.79 358.662 1258.94 358.25 1258.72C357.838 1258.5 354.587 1259.57 351.027 1261.08ZM537.027 1261.08C530.154 1264.01 528.238 1266 532.294 1266C536.715 1266 537.491 1268.27 537.5 1281.2C537.508 1292.65 537.432 1293.08 535.504 1292.48C526.508 1289.7 522.372 1289.82 516 1293.04C508.626 1296.76 504.708 1303.85 504.657 1313.55C504.619 1320.79 507.659 1327.91 512.164 1331.12C518.807 1335.85 527.823 1335.54 533.955 1330.39L537 1327.82V1330.35C537 1333.91 537.997 1334.2 545.44 1332.79C552.292 1331.49 553.63 1329.73 548.173 1329.19L545 1328.87V1294C545 1274.81 544.662 1258.94 544.25 1258.72C543.838 1258.5 540.587 1259.57 537.027 1261.08ZM916.75 1261.75C910.836 1264.38 909.434 1266 913.066 1266C914.202 1266 916.002 1266.47 917.066 1267.04C918.821 1267.97 919 1269.24 919 1280.64C919 1292.23 918.863 1293.16 917.25 1292.48C908.71 1288.91 897.09 1290.82 891.805 1296.66C886.186 1302.87 884.31 1315.76 887.896 1323.5C893.088 1334.71 905.82 1337.84 915.75 1330.35L919 1327.9V1330.95C919 1334.4 919.199 1334.45 927.205 1332.8C933.132 1331.57 934.432 1329.75 929.775 1329.19C928.124 1329 926.993 1328.1 926.615 1326.69C926.292 1325.49 926.021 1309.76 926.014 1291.75C925.998 1254.42 926.867 1257.24 916.75 1261.75ZM1033.37 1268.56C1031.35 1272.93 1025.04 1287.3 1019.34 1300.5C1008.3 1326.09 1006.83 1328.76 1002.64 1330.81C1001.17 1331.54 1000.22 1332.55 1000.54 1333.06C1001.31 1334.31 1020.71 1334.28 1021.48 1333.03C1021.81 1332.5 1020.49 1331.4 1018.54 1330.58C1015.56 1329.34 1015 1328.61 1015 1325.98C1015 1320.94 1020.71 1308.31 1023.3 1307.62C1027.53 1306.48 1044.56 1306.95 1046.27 1308.25C1047.89 1309.48 1054 1324.76 1054 1327.59C1054 1328.39 1052.88 1329.56 1051.5 1330.18C1050.12 1330.81 1049 1331.92 1049 1332.66C1049 1333.7 1051.55 1334 1060.44 1334C1066.89 1334 1072.15 1333.57 1072.49 1333.01C1072.83 1332.47 1071.32 1331.31 1069.14 1330.44C1064.3 1328.5 1065.81 1331.83 1045.5 1278.5C1042.36 1270.25 1039.17 1262.85 1038.42 1262.06C1037.24 1260.82 1036.52 1261.75 1033.37 1268.56ZM466.534 1264.93C465.7 1266.55 459.609 1280.3 453 1295.5C438.309 1329.28 438.655 1328.61 434.95 1330.53C433.292 1331.38 432.201 1332.52 432.526 1333.04C433.316 1334.32 451.709 1334.28 452.501 1333C452.842 1332.45 451.865 1331.52 450.331 1330.94C444.964 1328.9 444.73 1325.86 449.175 1315.92C451.368 1311.01 453.088 1308.54 454.74 1307.91C457.536 1306.85 464.249 1306.74 472.771 1307.63L478.836 1308.27L481.918 1316.43C485.655 1326.33 485.744 1328.47 482.509 1330.59C481.138 1331.48 480.265 1332.62 480.568 1333.11C480.87 1333.6 486.266 1334 492.559 1334C501.778 1334 504 1333.72 504 1332.58C504 1331.8 502.697 1330.87 501.104 1330.52C499.511 1330.17 497.489 1329.09 496.61 1328.12C495.732 1327.15 489.791 1312.66 483.408 1295.93C477.024 1279.19 471.38 1264.71 470.866 1263.75C469.523 1261.24 468.268 1261.58 466.534 1264.93ZM33.25 1263.76C12.586 1264.02 6.59 1264.87 14.008 1266.5C15.663 1266.86 17.478 1268.02 18.041 1269.08C19.163 1271.17 19.489 1324.56 18.398 1327.41C18.046 1328.32 16.447 1329.75 14.846 1330.58C13.245 1331.41 12.153 1332.44 12.421 1332.87C13.212 1334.15 36.275 1333.68 36.71 1332.37C36.92 1331.74 35.518 1330.95 33.556 1330.58C31.613 1330.21 29.569 1329.06 29.012 1328.02C28.455 1326.98 28 1320.24 28 1313.03V1299.93L48.5 1300.5L49.93 1303.75C50.717 1305.54 51.73 1307 52.18 1307C52.631 1307 53 1302.69 53 1297.43V1287.86L46.264 1295H28V1282.11C28 1267.34 27.583 1267.97 37.332 1268.06C48.654 1268.16 51.266 1269.02 53.37 1273.33C54.399 1275.44 55.597 1276.79 56.031 1276.33C57.241 1275.06 57.659 1263.69 56.5 1263.58C55.95 1263.53 45.487 1263.61 33.25 1263.76ZM733.109 1270.59C730.468 1273.95 730.479 1274.28 733.342 1277.61C736.016 1280.72 737.896 1280.43 739.946 1276.6C741.217 1274.23 741.158 1273.69 739.369 1271.29C736.619 1267.61 735.547 1267.49 733.109 1270.59ZM1343.6 1270.66C1340.11 1275.46 1344.76 1282.34 1348.94 1278.55C1351.39 1276.33 1351.58 1273.27 1349.44 1270.22C1347.43 1267.34 1345.94 1267.46 1343.6 1270.66ZM1249.81 1271.7C1248.93 1272.69 1246.82 1275.73 1245.11 1278.45C1239.84 1286.83 1241.36 1288.48 1248.38 1282C1250.77 1279.8 1253.07 1278 1253.5 1278C1253.93 1278 1256.23 1279.8 1258.62 1282C1266.22 1289.01 1267.18 1286.75 1260.75 1276.97C1256.11 1269.92 1252.8 1268.32 1249.81 1271.7ZM471.396 1288.51C473.928 1294.83 476 1300.46 476 1301.01C476 1301.6 471.966 1302 466 1302C459.527 1302 456 1301.62 456 1300.92C456 1299.23 465.425 1277.01 466.146 1277.01C466.501 1277 468.864 1282.18 471.396 1288.51ZM1039.71 1287.76C1042.03 1293.66 1044.22 1299.29 1044.57 1300.25C1045.16 1301.84 1044.32 1302 1035.27 1302C1029.81 1302 1025.07 1301.74 1024.75 1301.42C1024.43 1301.1 1025.98 1296.48 1028.2 1291.17C1030.41 1285.85 1032.61 1280.49 1033.09 1279.25C1033.56 1278.01 1034.3 1277 1034.72 1277.01C1035.15 1277.01 1037.4 1281.85 1039.71 1287.76ZM704.46 1282.75C703.487 1284.26 700.96 1287.59 698.845 1290.14C696.73 1292.69 695 1295.05 695 1295.39C695 1295.73 696.125 1296 697.5 1296C699.193 1296 700.018 1296.57 700.055 1297.75C700.086 1298.71 700.085 1304.68 700.054 1311C699.957 1330.93 701.931 1334.49 712.679 1333.81C716.902 1333.54 719.544 1332.82 720.943 1331.55C723.758 1329 723.525 1327.85 720.435 1329.03C719.024 1329.56 716.334 1330 714.458 1330C708.67 1330 707.898 1327.63 708.222 1310.88L708.5 1296.5L714 1296.21C719.133 1295.94 722 1294.36 722 1291.81C722 1291.36 718.85 1291 715 1291H708V1285.5C708 1279.37 707.089 1278.67 704.46 1282.75ZM792.25 1287.26C788.813 1291.51 786 1295.18 786 1295.42C786 1295.67 787.237 1296.01 788.75 1296.18L791.5 1296.5L791.743 1311C792.024 1327.76 792.266 1329.24 795.201 1331.97C798.194 1334.76 807.205 1334.78 811.75 1332.01C815.168 1329.93 816.363 1327.18 813.25 1328.56C809.763 1330.11 803.534 1330.16 801.5 1328.65C799.651 1327.28 799.5 1326 799.5 1311.83V1296.5L804.97 1296.19C810.635 1295.87 813 1294.75 813 1292.38C813 1291.34 811.287 1291 806.05 1291H799.1L798.5 1279.54L792.25 1287.26ZM150.074 1290.4C144.443 1291.54 141.857 1294 146.283 1294H148.732L149.198 1309.31C149.707 1326.06 150.629 1329.17 156.04 1332.36C160.489 1334.99 169.721 1334.55 174.215 1331.5C178.769 1328.41 179 1328.41 179 1331.51C179 1333.89 179.225 1333.99 183.25 1333.45C192.992 1332.13 194.193 1331.27 189 1329.31L186 1328.17V1290H183.64C182.341 1290 179.191 1290.29 176.64 1290.64C171.496 1291.34 170.258 1293.67 174.75 1294.18L177.5 1294.5L177.788 1308.5C177.946 1316.2 177.827 1323.5 177.523 1324.73C176.829 1327.54 172.178 1330 167.565 1330C165.075 1330 163.067 1329.14 160.766 1327.08L157.5 1324.17L157.186 1307.33C157.014 1298.07 156.564 1290.23 156.186 1289.9C155.809 1289.56 153.058 1289.79 150.074 1290.4ZM648.5 1291.68C640.667 1294.96 640.03 1295.69 644.114 1296.75L647.5 1297.62L648.05 1328.92L645.525 1330.57C644.136 1331.48 643 1332.63 643 1333.11C643 1333.6 647.5 1334 653 1334C661.222 1334 663 1333.73 663 1332.5C663 1331.68 662.213 1330.99 661.25 1330.97C660.287 1330.95 658.7 1330.33 657.722 1329.59C656.139 1328.39 655.974 1326.67 656.222 1313.91L656.5 1299.58L660 1297.2C662.693 1295.38 664.387 1294.94 667.348 1295.33C675.2 1296.36 678 1302.28 678 1317.86C678 1328.37 677.582 1329.83 674.201 1331.11C672.512 1331.76 672.007 1332.41 672.677 1333.08C673.893 1334.29 692.5 1333.87 692.5 1332.63C692.5 1332.15 690.925 1331.25 689 1330.63L685.5 1329.5L684.869 1316C684.522 1308.57 683.705 1301.15 683.053 1299.5C679.245 1289.87 667.575 1287.44 659.151 1294.53C657.534 1295.89 655.965 1297 655.663 1297C655.362 1297 654.977 1295.24 654.807 1293.08L654.5 1289.17L648.5 1291.68ZM732.25 1291.77C726.385 1294.72 725.844 1295.67 729.5 1296.59L732 1297.22V1313.1C732 1327.9 731.864 1329.07 730 1330.23C727.189 1331.99 727.367 1334.4 730.25 1333.63C731.487 1333.3 735.987 1333.02 740.25 1333.01C744.741 1333.01 748 1332.58 748 1332C748 1331.45 747.2 1331 746.223 1331C745.245 1331 743.445 1330.3 742.223 1329.44C740.055 1327.92 740 1327.4 740 1308.44C740 1293.52 739.709 1289.01 738.75 1289.06C738.063 1289.09 735.138 1290.31 732.25 1291.77ZM1079 1292.2L1072.5 1295.23L1079.5 1297.5L1080.05 1328.92L1077.49 1330.6C1076.09 1331.52 1075.16 1332.49 1075.43 1332.77C1076.15 1333.48 1093.96 1333.38 1094.68 1332.65C1095.01 1332.32 1094.43 1331.74 1093.39 1331.37C1088.32 1329.56 1088 1328.54 1088 1313.93V1300.18L1091.08 1297.59C1094.33 1294.85 1097.26 1294.39 1101.39 1295.96C1105.89 1297.67 1107 1301.58 1107 1315.8C1107 1327.42 1106.8 1328.87 1105 1330.5C1103.9 1331.5 1103 1332.58 1103 1332.91C1103 1333.75 1120.72 1333.61 1121.57 1332.76C1121.96 1332.37 1121.18 1331.64 1119.85 1331.13C1115.55 1329.5 1115.15 1328.08 1114.88 1313.69C1114.59 1298.08 1115.24 1296.48 1122.29 1295.34C1126.9 1294.59 1130.61 1296.83 1132.58 1301.55C1134.09 1305.16 1134.61 1326.55 1133.23 1328.6C1132.83 1329.2 1131.48 1330.24 1130.22 1330.9C1126.22 1333.01 1128.86 1334 1138.5 1334C1148.33 1334 1151.39 1332.73 1146.05 1330.87C1144.35 1330.28 1142.52 1328.97 1141.98 1327.96C1141.44 1326.96 1141 1320.58 1141 1313.8C1141 1303.71 1140.66 1300.84 1139.15 1298.02C1136.35 1292.81 1133.01 1290.77 1127.26 1290.77C1122.07 1290.77 1118.95 1291.93 1115.36 1295.19C1113.24 1297.12 1113.21 1297.12 1110.73 1294.64C1106.8 1290.71 1100.67 1289.47 1095.29 1291.53C1092.87 1292.45 1090.35 1294.06 1089.7 1295.1C1087.87 1298.04 1087 1297.37 1087 1293C1087 1290.8 1086.66 1289.04 1086.25 1289.09C1085.84 1289.13 1082.58 1290.54 1079 1292.2ZM1287 1292.22C1280.29 1295.37 1280.26 1295.51 1286.15 1297.34C1288.48 1298.07 1289.34 1305.86 1288.47 1318.57C1287.82 1328.16 1287.54 1329.26 1285.39 1330.67C1284.08 1331.52 1283.26 1332.62 1283.57 1333.11C1284.33 1334.35 1302.74 1334.24 1303.5 1332.99C1303.85 1332.44 1303.31 1331.72 1302.31 1331.4C1295.76 1329.29 1296 1329.95 1296 1314.4C1296 1300.24 1296.02 1300.13 1298.6 1298.1C1304.25 1293.66 1311.15 1294.57 1315.41 1300.32C1317.28 1302.85 1317.5 1304.52 1317.5 1316.3V1329.46L1314.65 1330.83C1310 1333.07 1312.94 1334.1 1323.09 1333.79C1332.54 1333.5 1334.94 1332.26 1329.02 1330.72C1325.37 1329.78 1325.19 1329.07 1324.75 1313.44C1324.47 1303.71 1324.03 1300.73 1322.45 1298.04C1317.61 1289.77 1308.65 1288.04 1300.47 1293.81C1297.98 1295.56 1295.73 1297 1295.47 1297C1295.21 1297 1295 1295.2 1295 1293C1295 1290.8 1294.66 1289.04 1294.25 1289.09C1293.84 1289.13 1290.58 1290.54 1287 1292.22ZM1342.56 1292.16L1336.62 1295.22L1343 1297.9V1313.43C1343 1328.87 1342.99 1328.96 1340.51 1330.59C1339.14 1331.48 1338.19 1332.51 1338.41 1332.86C1339.15 1334.05 1357.37 1333.4 1357.78 1332.16C1357.99 1331.52 1357.32 1331 1356.27 1331C1355.23 1331 1353.67 1330.44 1352.79 1329.75C1351.25 1328.54 1351.02 1325.27 1350.02 1289.75C1349.99 1288.55 1348.86 1288.91 1342.56 1292.16ZM71.771 1291.15C67.597 1292.31 62 1297.99 62 1301.06C62 1303.19 66.725 1305.69 68.096 1304.29C68.52 1303.85 69.009 1301.7 69.183 1299.51C69.604 1294.2 72.906 1292.36 78.623 1294.24C83.212 1295.75 84.965 1298.77 84.985 1305.18L85 1309.86L79.25 1311.02C66.691 1313.57 62 1317.51 62 1325.5C62 1328.02 62.763 1329.85 64.567 1331.66C66.886 1333.98 67.735 1334.19 73.359 1333.83C77.678 1333.55 80.524 1332.76 82.65 1331.25L85.714 1329.07L88.032 1331.53C90.504 1334.17 94.703 1334.76 98.066 1332.96C100.936 1331.43 100.411 1330 96.975 1330C92.727 1330 92 1327.37 92 1311.98C92 1297.79 91.171 1294.66 86.823 1292.41C83.036 1290.45 76.289 1289.88 71.771 1291.15ZM119.728 1291.27C110.71 1294.21 104.832 1302.65 104.736 1312.79C104.662 1320.61 106.406 1325.23 110.999 1329.38C118.98 1336.59 130.434 1336.31 138.75 1328.71C142.541 1325.24 141.506 1323.65 137.25 1326.39C131.633 1330.02 127.867 1330.48 122.622 1328.16C119.646 1326.84 117.199 1324.75 115.323 1321.91C112.763 1318.04 112.5 1316.83 112.5 1308.84C112.5 1300.38 112.617 1299.92 115.5 1297.09C120.547 1292.14 126.712 1292.48 132.235 1298C134.435 1300.2 136.632 1302 137.118 1302C137.603 1302 138 1299.99 138 1297.54C138 1294.18 137.531 1292.82 136.105 1292.06C132.996 1290.39 123.784 1289.95 119.728 1291.27ZM285.684 1291.45C277.273 1294.45 273.077 1302.74 279.166 1304.33C282.722 1305.26 284.104 1304.08 283.468 1300.63C282.588 1295.88 284.839 1293.5 290.105 1293.64C296.205 1293.8 299 1297.21 299 1304.48V1309.86L293.25 1311.01C281.337 1313.4 276 1317.86 276 1325.45C276 1333.8 286.627 1337.1 296.243 1331.73L299.987 1329.64L302.308 1331.82C304.796 1334.16 308.931 1334.64 312.066 1332.96C314.724 1331.54 314.494 1330 311.622 1330C307.211 1330 306.535 1327.77 306 1311.45C305.43 1294.07 304.976 1292.99 297.496 1291.1C291.982 1289.72 290.417 1289.76 285.684 1291.45ZM384.791 1290.99C372.922 1294.57 367.269 1311.12 373.586 1323.8C376.62 1329.88 379.946 1332.53 386.373 1333.97C392.869 1335.43 398.913 1333.74 404.257 1328.98C406.591 1326.9 408.22 1324.91 407.877 1324.56C407.535 1324.21 405.105 1325.06 402.478 1326.46C399.841 1327.86 396.044 1329 393.999 1329C386.769 1329 379.924 1321.63 378.419 1312.22L377.744 1308H407V1305.2C407 1300.98 402.136 1294.24 397.443 1291.97C393.183 1289.91 389.355 1289.61 384.791 1290.99ZM612.469 1291.01C608.935 1292.1 603.572 1297.06 601.192 1301.44C600.038 1303.56 599.524 1306.95 599.514 1312.5C599.502 1319.41 599.868 1321.13 602.209 1325.11C605.407 1330.55 608.23 1332.59 614.458 1333.99C620.863 1335.43 626.942 1333.71 632.257 1328.98C637.491 1324.32 636.674 1322.93 630.741 1326.41C625.108 1329.71 619.511 1329.82 614.898 1326.71C610.701 1323.88 607.243 1317.8 606.819 1312.5L606.5 1308.5L635 1307.94V1304.84C635 1301.05 631.857 1295.75 627.965 1292.97C624.648 1290.61 616.917 1289.63 612.469 1291.01ZM762.333 1291.06C757.522 1292.51 753.993 1297.3 754.032 1302.33C754.074 1307.86 755.362 1309.32 764.609 1314.29C773.844 1319.26 776.016 1322.13 774.075 1326.82C773.202 1328.93 771.706 1330.27 769.381 1331.04C763.692 1332.92 758.149 1328.37 755.556 1319.69C754.493 1316.13 753 1319.21 753 1324.96V1330.81L757.678 1332.41C760.251 1333.28 764.579 1334 767.296 1334C771.7 1334 772.656 1333.58 776.118 1330.12C779.683 1326.55 780 1325.79 780 1320.75C780 1313.72 778.042 1311.18 769.804 1307.53C762.249 1304.19 759 1301.44 759 1298.38C759 1295.62 762.48 1293 766.146 1293C769.172 1293 774.565 1297.05 775.514 1300.04C776.617 1303.52 778 1302.12 778 1297.54C778 1294.31 777.516 1292.81 776.25 1292.13C773.421 1290.62 765.754 1290.03 762.333 1291.06ZM828.684 1291.4C823.877 1293.18 821.405 1295.4 820.113 1299.11C819.219 1301.67 819.391 1302.21 821.541 1303.62C825.192 1306.01 826.927 1304.82 826.737 1300.06C826.533 1294.95 827.77 1293.75 833.169 1293.82C839.262 1293.91 842 1297.18 842 1304.4V1309.68L836.25 1310.92C823.5 1313.68 818.261 1318.45 819.319 1326.34C820.137 1332.44 822.93 1334.3 830.529 1333.82C834.682 1333.55 837.548 1332.75 839.65 1331.25L842.714 1329.07L845.032 1331.53C847.504 1334.17 851.703 1334.76 855.066 1332.96C857.724 1331.54 857.494 1330 854.622 1330C850.158 1330 849.507 1327.8 849.414 1312.42C849.303 1293.94 848.114 1291.78 837.423 1290.55C834.319 1290.2 831.09 1290.51 828.684 1291.4ZM949.352 1291.04C945.638 1292.18 940 1298.22 940 1301.06C940 1303.11 944.342 1305.52 946.084 1304.45C946.588 1304.14 947 1302.12 947 1299.96C947 1296.87 947.535 1295.7 949.545 1294.38C951.705 1292.96 952.689 1292.89 956.04 1293.89C960.792 1295.32 963 1298.94 963 1305.32V1309.74L957.25 1310.89C949.35 1312.48 943.499 1315.31 941.351 1318.59C938.737 1322.58 939.003 1328.31 941.947 1331.44C945.193 1334.9 953.612 1335.04 959.45 1331.73L963.401 1329.49L965.655 1331.75C967.863 1333.95 972.096 1334.67 975.418 1333.39C977.928 1332.43 977.296 1330 974.535 1330C973.122 1330 971.629 1329.18 971.035 1328.07C970.466 1327 969.993 1319.91 969.985 1312.32C969.969 1297.23 969.218 1294.35 964.741 1292.2C961.086 1290.45 953.2 1289.85 949.352 1291.04ZM1162.5 1291.45C1154.78 1294.28 1151.16 1301.97 1156.58 1304.03C1160.09 1305.37 1161 1304.55 1161 1300.06C1161 1297.84 1161.65 1295.71 1162.55 1294.96C1164.35 1293.47 1170.16 1293.48 1172.98 1294.99C1175.15 1296.15 1177.28 1302.72 1176.81 1306.81C1176.53 1309.18 1175.78 1309.65 1169.5 1311.28C1160.27 1313.69 1156.89 1315.76 1154.62 1320.38C1153.04 1323.59 1152.92 1324.78 1153.86 1327.92C1154.52 1330.13 1155.99 1332.19 1157.47 1332.98C1161.1 1334.93 1168.1 1334.5 1172.9 1332.05L1177.08 1329.92L1179.68 1331.96C1183.45 1334.93 1191 1334.55 1191 1331.39C1191 1330.61 1190 1330 1188.7 1330C1184.45 1330 1184 1328.43 1184 1313.7C1184 1294.43 1182.57 1291.82 1171.29 1290.53C1168.27 1290.19 1165.02 1290.53 1162.5 1291.45ZM1245.83 1291.52C1235.79 1294.73 1229.29 1307.06 1231.97 1317.85C1234.64 1328.67 1241.93 1334.25 1253.37 1334.25C1266.79 1334.25 1275.41 1325.51 1275.33 1311.98C1275.29 1305.48 1273.66 1300.67 1270.13 1296.64C1265.47 1291.34 1253.98 1288.91 1245.83 1291.52ZM1373.41 1291.02C1369.38 1292.26 1365.25 1296.15 1364.41 1299.49C1363.63 1302.59 1364.58 1303.83 1368.02 1304.22C1370.27 1304.47 1370.55 1304.09 1371 1300.01C1371.63 1294.37 1374.58 1292.49 1380.32 1294.08C1384.89 1295.34 1387.23 1299.4 1386.8 1305.29L1386.5 1309.46L1379.68 1311.24C1367.37 1314.45 1363.73 1317.64 1363.73 1325.22C1363.73 1328.48 1364.3 1329.86 1366.42 1331.68C1370.09 1334.84 1377.92 1334.86 1383.45 1331.73L1387.4 1329.49L1389.66 1331.75C1391.86 1333.95 1396.1 1334.67 1399.42 1333.39C1401.93 1332.43 1401.3 1330 1398.53 1330C1397.12 1330 1395.63 1329.18 1395.03 1328.07C1394.47 1327 1394 1320.05 1394 1312.61C1394 1297.71 1393.21 1294.68 1388.75 1292.37C1385.09 1290.48 1377.38 1289.8 1373.41 1291.02ZM552 1292.56C552 1293.22 552.906 1294 554.013 1294.29C555.152 1294.59 556.71 1296.49 557.598 1298.66C564.798 1316.25 573.586 1335 574.632 1335C576.011 1335 579.762 1327.49 587.969 1308.3C591.44 1300.19 594.001 1295.57 595.625 1294.51C596.966 1293.63 597.867 1292.59 597.627 1292.21C596.94 1291.09 583.007 1291.37 582.941 1292.5C582.909 1293.05 583.921 1293.75 585.191 1294.06C587.142 1294.54 587.484 1295.24 587.395 1298.56C587.282 1302.77 578.342 1324.33 577.041 1323.53C575.507 1322.58 565.997 1297.17 566.595 1295.61C566.935 1294.73 568.103 1294 569.19 1294C570.277 1294 570.996 1293.49 570.788 1292.86C570.241 1291.22 552 1290.93 552 1292.56ZM1198.58 1291.86C1197.57 1293.51 1196.73 1304 1197.61 1303.99C1198.1 1303.99 1199.27 1302.64 1200.2 1300.99C1201.88 1298.06 1202.06 1298 1209.99 1298C1217.39 1298 1217.99 1298.15 1217.11 1299.75C1216.58 1300.71 1211.41 1308.48 1205.62 1317L1195.1 1332.5L1208.25 1332.78C1215.48 1332.94 1221.92 1332.86 1222.56 1332.62C1223.85 1332.12 1227.41 1322.08 1226.59 1321.25C1226.3 1320.96 1224.74 1322.14 1223.13 1323.86C1220.34 1326.85 1219.83 1327 1212.6 1327C1208.42 1327 1205 1326.58 1205 1326.08C1205 1325.57 1209.02 1319.08 1213.93 1311.66C1223.94 1296.54 1226.21 1292.54 1225.29 1291.63C1224.33 1290.66 1199.19 1290.88 1198.58 1291.86ZM251 1295.9C254.565 1298.45 255.879 1303.18 255.944 1313.67C255.995 1322.04 255.78 1323.11 253.506 1325.81C246.799 1333.78 233.931 1328.45 230.378 1316.23C227.275 1305.56 231.014 1296.77 240 1293.62C242.452 1292.76 248.318 1293.97 251 1295.9ZM345.977 1295.82C350.165 1298.93 350.969 1301.73 350.985 1313.3C350.999 1323.58 350.88 1324.21 348.46 1326.45C341.364 1333.03 330.859 1329.05 326.246 1318.04C324.211 1313.18 324.964 1302.88 327.618 1299.26C332.131 1293.11 340.264 1291.58 345.977 1295.82ZM393.783 1294.56C396.55 1296.5 399.328 1301.7 398.604 1303.59C398.19 1304.67 395.793 1305 388.406 1305H378.75L379.373 1301.75C380.163 1297.62 385.141 1293 388.793 1293C390.312 1293 392.558 1293.7 393.783 1294.56ZM530.454 1294.42C536.304 1296.86 537.442 1299.8 537.473 1312.55C537.503 1325.16 536.625 1327.18 530.35 1328.91C525.558 1330.24 520.723 1328.59 517.015 1324.36C512.883 1319.66 511.831 1316.7 511.814 1309.75C511.796 1302.52 514.402 1297.13 519.069 1294.75C523.229 1292.63 525.988 1292.55 530.454 1294.42ZM622.987 1295.75C624.647 1297.26 626.285 1299.96 626.627 1301.75L627.25 1305H617.125C605.985 1305 605.553 1304.7 608.494 1299.01C611.811 1292.6 617.998 1291.2 622.987 1295.75ZM911.961 1294.48C918.002 1297.6 919 1300.15 919 1312.41C919 1325.03 918.177 1327.13 912.493 1329C905.85 1331.19 898.864 1327.57 894.956 1319.91C892.262 1314.63 892.281 1304.69 894.995 1300.24C898.895 1293.84 906.04 1291.42 911.961 1294.48ZM1259.02 1294.87C1264.61 1297.87 1267.5 1304.61 1267.5 1314.65C1267.5 1324.06 1265.93 1327.22 1259.74 1330.3C1252.99 1333.66 1245.21 1329.49 1241.42 1320.5C1239.26 1315.36 1239.24 1304.37 1241.38 1300.22C1244.99 1293.25 1252.01 1291.11 1259.02 1294.87ZM85 1318.93C85 1326.29 83.987 1328.29 79.382 1330.05C75.96 1331.35 71.402 1329.39 70.004 1326.01C67.826 1320.75 70.721 1316.48 78.214 1313.89C81.121 1312.89 83.837 1312.05 84.25 1312.03C84.663 1312.01 85 1315.12 85 1318.93ZM299 1319.48C299 1326.29 298.783 1327.1 296.577 1328.54C293.276 1330.7 288.413 1330.68 285.997 1328.5C283.107 1325.88 283.311 1320 286.393 1317.1C288.367 1315.25 295.219 1312.34 298.25 1312.07C298.663 1312.03 299 1315.37 299 1319.48ZM842 1319.48C842 1326.41 841.812 1327.08 839.421 1328.64C831.155 1334.06 822.98 1325.38 829.063 1317.65C830.737 1315.52 837.516 1312.42 841.25 1312.07C841.662 1312.03 842 1315.37 842 1319.48ZM963 1319.39C963 1324.61 962.625 1326 960.75 1327.71C952.636 1335.14 942.778 1326.52 949.256 1317.66C950.653 1315.75 960.862 1311.8 962.222 1312.64C962.65 1312.9 963 1315.94 963 1319.39ZM1176.8 1317.64C1177.2 1324.5 1175.74 1327.79 1171.49 1329.57C1168.37 1330.87 1167.64 1330.86 1165 1329.5C1159.97 1326.9 1159.71 1319.55 1164.53 1316.39C1167.58 1314.39 1174.14 1311.99 1175.5 1312.38C1176.05 1312.53 1176.63 1314.9 1176.8 1317.64ZM1387 1319.52C1387 1324.74 1386.61 1326.28 1384.9 1327.88C1376.95 1335.28 1366.85 1326.43 1373.26 1317.66C1374.65 1315.75 1384.86 1311.8 1386.22 1312.64C1386.65 1312.9 1387 1316 1387 1319.52Z" fill="black"/>
<path fill-rule="evenodd" clip-rule="evenodd" d="M716.5 0.5V438.5H1171V226.5L765.5 0.5H716.5ZM927.572 278.029C902.997 280.844 873.839 289.91 848 302.771L838.5 307.5L838.236 338.25C838.09 355.163 838.146 369 838.361 369C838.575 369 842.294 367.374 846.625 365.388C885.818 347.409 927.047 338.904 960.541 341.887C986.601 344.208 1014.81 351.899 1040.86 363.787L1054.03 369.796L1053.5 307.653L1044 302.85C1023.5 292.483 995.813 283.004 976 279.566C964.622 277.592 938.598 276.766 927.572 278.029ZM852.5 236.228C869 228.223 897.575 214.359 916 205.419C934.425 196.479 949.643 189.127 949.819 189.082C950.748 188.843 985.796 205.923 1057.5 241.56L1137.5 281.321L1131 284.415C1127.42 286.117 1120.3 289.451 1115.18 291.824L1105.86 296.14L1106.45 304.82C1106.77 309.594 1107.14 316.86 1107.27 320.966C1107.49 328.029 1107.36 328.5 1105.01 329.678C1102.99 330.686 1102.13 330.668 1100.51 329.585C1098.34 328.14 1098.18 324.367 1099.55 306.75C1099.89 302.488 1099.99 299 1099.77 299C1099.56 299 1092.95 301.925 1085.08 305.5C1077.2 309.075 1070.4 312 1069.96 312C1069.52 312 1068.39 309.961 1067.43 307.469C1065.73 303.008 1065.49 302.833 1051.6 296.083C1017.34 279.428 986.443 270.243 957.395 268.075C931.44 266.138 898.216 271.978 866.149 284.114C852.472 289.291 827.129 301.483 826.504 303.188C826.239 303.91 825.595 307.585 825.072 311.356C824.549 315.127 823.957 318.377 823.756 318.577C823.416 318.917 791.975 302.905 766.096 289.211L754.691 283.177L763.096 279.357C767.718 277.256 782.975 269.967 797 263.16C811.025 256.353 836 244.233 852.5 236.228Z" fill="black"/>
<path fill-rule="evenodd" clip-rule="evenodd" d="M696 881.5V461H239.5C259.9 813.8 552.833 888.833 696 881.5ZM334.882 549.538C338.062 548.531 397.599 536.862 416.867 533.47C434.316 530.397 438.002 530.056 450 530.401C463.993 530.803 472.868 532.557 483.7 537.062L488.9 539.225L497.336 536.173C514.378 530.006 530.458 528.614 551 531.525C573.01 534.644 643.749 548.478 645.328 549.972C646.651 551.225 660.843 655.557 659.816 656.488C659.501 656.773 626.418 651.179 576 642.315C551.501 638.007 548.179 637.65 532 637.578C512.65 637.492 506.364 638.752 495.155 644.966L489.81 647.929L482.791 644.395C467.227 636.557 452.314 635.153 425.89 639.039C400.948 642.707 335.976 653.663 321.64 656.618L318.78 657.207L319.477 650.854C320.02 645.912 329.352 577.567 332.664 554.275C333.038 551.644 333.875 549.857 334.882 549.538ZM321.75 666.616C326.217 665.293 407.244 651.668 428.5 648.666C450.929 645.498 464.866 646.982 482.068 654.371L489.636 657.622L496.568 654.677C519.139 645.088 532.52 644.986 585.486 653.996C594.844 655.588 614.65 658.951 629.5 661.47C644.35 663.988 657.063 666.249 657.75 666.493C659.682 667.18 659.332 673.935 657.325 674.706C656.404 675.059 648.416 674.102 639.575 672.58C569.146 660.449 539.753 656.008 529.859 656.003C521.966 655.999 506.707 659.753 497.327 664.006C493.695 665.653 490.242 667 489.653 667C489.064 667 484.964 665.454 480.541 663.564C469.816 658.98 457.987 656 450.52 656C447.163 656 439.036 656.701 432.458 657.558C419.677 659.223 335.43 673.223 327.514 674.997C321.759 676.287 320 675.221 320 670.445C320 668.157 320.54 666.975 321.75 666.616Z" fill="black"/>
</svg>
